<?xml version="1.0" encoding="UTF-8" standalone="no"?>
<!-- Created with Inkscape (http://www.inkscape.org/) -->

<svg
   xmlns:dc="http://purl.org/dc/elements/1.1/"
   xmlns:cc="http://creativecommons.org/ns#"
   xmlns:rdf="http://www.w3.org/1999/02/22-rdf-syntax-ns#"
   xmlns:svg="http://www.w3.org/2000/svg"
   xmlns="http://www.w3.org/2000/svg"
   xmlns:sodipodi="http://sodipodi.sourceforge.net/DTD/sodipodi-0.dtd"
   xmlns:inkscape="http://www.inkscape.org/namespaces/inkscape"
   version="1.1"
   width="36"
   height="36"
   id="svg2"
   inkscape:version="0.48.3.1 r9886"
   sodipodi:docname="albero.svg">
  <sodipodi:namedview
     pagecolor="#ffffff"
     bordercolor="#666666"
     borderopacity="1"
     objecttolerance="10"
     gridtolerance="10"
     guidetolerance="10"
     inkscape:pageopacity="0"
     inkscape:pageshadow="2"
     inkscape:window-width="1366"
     inkscape:window-height="709"
     id="namedview2989"
     showgrid="false"
     inkscape:zoom="4.7140452"
     inkscape:cx="-10.567947"
     inkscape:cy="21.253579"
     inkscape:window-x="0"
     inkscape:window-y="27"
     inkscape:window-maximized="1"
     inkscape:current-layer="svg2" />
  <defs
     id="defs4" />
  <metadata
     id="metadata7">
    <rdf:RDF>
      <cc:Work
         rdf:about="">
        <dc:format>image/svg+xml</dc:format>
        <dc:type
           rdf:resource="http://purl.org/dc/dcmitype/StillImage" />
        <dc:title />
      </cc:Work>
    </rdf:RDF>
  </metadata>
  <path
     id="path2998"
     style="fill:#000000;fill-opacity:1;stroke:none"
     d="m 23.260113,15.797492 c -0.07773,-0.400995 -0.192237,-0.777793 -0.427464,-1.112655 -0.360862,-0.513723 -1.129706,-0.901535 -1.630195,-1.268235 -0.651055,-0.477018 -1.076658,-0.874396 -1.879944,-1.043351 -0.688255,-0.144761 -1.408817,-0.162721 -2.144057,-0.03565 -1.017891,0.175918 -1.932426,0.606825 -2.675092,1.221277 -0.613726,0.507773 -1.052671,1.46991 -1.408685,2.178252 -0.530729,1.055968 -0.794937,1.956593 -0.578218,3.210569 0.177492,1.027 0.612057,1.947739 1.235246,2.694056 0.652036,0.780866 1.450898,1.034692 2.408393,1.379601 0.901311,0.324671 1.954968,0.763147 2.96646,0.588336 0.791994,-0.136877 1.451984,-0.759699 2.084872,-1.172719 1.11477,-0.738352 2.021977,-1.559466 2.453558,-2.936065 0.219191,-0.789755 -0.05973,-1.582653 -0.20858,-2.44391 C 23.382097,16.627 23.33782,16.198493 23.260115,15.797495 z M 18.11838,10.12443 c -0.550549,-0.123192 -1.0908,-0.1864172 -1.644664,-0.07368 -0.849696,0.172946 -1.765433,0.931913 -2.506168,1.362844 -0.963578,0.560573 -1.701769,0.879759 -2.359496,1.803254 -0.56354,0.791249 -0.984418,1.693457 -1.229822,2.694383 -0.339744,1.385713 -0.299596,2.781486 0.06786,4.061112 0.303659,1.057461 1.279055,2.144731 1.979006,2.986787 1.043458,1.255301 2.037539,2.087388 3.74465,2.505931 1.398114,0.342784 2.803759,0.301435 4.092836,-0.07506 1.34875,-0.393925 2.111466,-1.264925 3.077134,-2.286404 0.909004,-0.961542 2.046249,-2.053048 2.383858,-3.43005 C 25.98792,18.59536 25.564186,17.415766 25.39106,16.386403 25.072368,14.567284 24.534223,12.96518 23.030107,11.658223 22.151497,10.944382 20.993678,10.859349 19.8212,10.571885 19.235819,10.428363 18.668927,10.247634 18.118381,10.124432 z m -0.0026,0.98802 c 0.481726,0.107802 0.964527,0.266442 1.476735,0.392023 1.025919,0.251531 2.040743,0.318871 2.809526,0.943481 1.316102,1.143588 1.793577,2.541428 2.072431,4.133158 0.151488,0.900692 0.51259,1.941704 0.281288,2.885117 -0.295408,1.204877 -1.290464,2.167442 -2.085843,3.008791 -0.844959,0.893796 -1.51017,1.647089 -2.690327,1.991773 -1.127942,0.329436 -2.357881,0.365615 -3.581231,0.06568 -1.493722,-0.366225 -2.353845,-1.095668 -3.266871,-2.194056 -0.612456,-0.736798 -1.475192,-1.688559 -1.740895,-2.613838 -0.321524,-1.119673 -0.355751,-2.337009 -0.05848,-3.549506 0.214728,-0.875811 0.579465,-1.666109 1.072561,-2.358453 0.575512,-0.808058 1.220995,-1.085578 2.064126,-1.576079 0.648143,-0.377066 1.452912,-1.047794 2.196396,-1.199122 0.484632,-0.09864 0.968849,-0.03676 1.450579,0.07104 z M 12.768011,8.6635741 C 12.036964,8.8942591 11.358922,9.1884132 10.784884,9.6986344 9.9042344,10.481378 9.3456363,11.997876 8.7689873,13.009504 8.0188607,14.325469 7.3689919,15.204033 7.225825,16.737931 c -0.1226653,1.31424 -0.002,2.66159 0.3922247,4.005283 0.5457709,1.86025 1.5448661,3.47324 2.8494153,4.726505 1.078058,1.035677 2.965898,1.648265 4.362789,2.160519 2.082425,0.763646 3.818191,1.063587 6.109902,0.391232 1.876899,-0.550655 3.500672,-1.557895 4.758877,-2.879516 1.31645,-1.382801 1.618806,-2.926605 2.057053,-4.785672 0.41253,-1.749981 1.004664,-3.808362 0.462324,-5.656919 -0.42465,-1.447412 -1.727118,-2.544735 -2.632606,-3.636412 -1.615174,-1.9205564 -3.340253,-3.4364014 -5.999293,-3.9465879 -1.519415,-0.2397257 -2.938124,0.4499677 -4.512118,0.911755 -0.785844,0.2305555 -1.575336,0.404771 -2.306382,0.635456 z m 0.67081,1.1629117 c 0.639664,-0.2018487 1.315264,-0.344676 2.002878,-0.546412 1.377245,-0.4040639 2.615833,-1.0170305 3.945321,-0.8072703 2.32666,0.446413 3.841131,1.7635765 5.254407,3.4440645 0.792302,0.955216 1.926652,1.932384 2.298221,3.19887 0.474547,1.617487 -0.03842,3.427359 -0.399381,4.958592 -0.383466,1.626685 -0.651505,2.965657 -1.8034,4.175609 -1.100929,1.156418 -2.521731,2.037752 -4.164017,2.519575 -2.005248,0.588311 -3.513578,0.317642 -5.3357,-0.350549 -1.222279,-0.448221 -2.885299,-0.978386 -3.8286,-1.884604 C 10.267069,23.437754 9.3966232,22.030434 8.9190741,20.402716 8.5741313,19.226984 8.4638029,18.049445 8.571135,16.899484 c 0.1252709,-1.34216 0.6946017,-2.108533 1.3509629,-3.260001 0.5045671,-0.885175 0.9929301,-2.222291 1.7634981,-2.907193 0.502284,-0.446443 1.11356,-0.703955 1.753225,-0.9058042 z m 4.738427,-5.57118 c -0.961261,-0.21295 -1.904332,-0.3212636 -2.8705,-0.1224611 -1.482226,0.3049885 -3.07752,1.63293 -4.368629,2.3877422 C 9.2585967,7.5024749 7.9715127,8.062261 6.8271044,9.6763731 5.8465768,11.059342 5.115432,12.635422 4.6908897,14.383127 c -0.5877495,2.419578 -0.5124854,4.855298 0.1335572,7.087101 0.5338784,1.844324 2.2401677,3.738167 3.464842,5.205095 1.8256941,2.186832 3.5636421,3.635265 6.5444091,4.359335 2.441232,0.59301 4.894177,0.515614 7.142439,-0.146243 2.352339,-0.692496 3.680166,-2.215385 5.36162,-4.001644 1.58279,-1.681446 3.563416,-3.590554 4.147471,-5.994922 0.457313,-1.882611 -0.286571,-3.939633 -0.592544,-5.735405 C 30.329733,11.982947 29.384606,9.1890003 26.75479,6.9137353 25.218801,5.6712312 23.197887,5.5271463 21.150634,5.0298399 20.128508,4.7815509 19.13851,4.4682559 18.177248,4.2553058 z m -7.98e-4,1.7242779 c 0.841104,0.1863316 1.684266,0.4613887 2.578627,0.6786414 1.791346,0.4351432 3.562642,0.5488812 4.906632,1.6360722 2.301091,1.9908567 3.139576,4.4285557 3.632158,7.2053647 0.267727,1.571301 0.901794,3.386703 0.501645,5.033988 -0.511048,2.103822 -2.24401,3.787377 -3.62895,5.258642 -1.471273,1.562978 -2.629376,2.880085 -4.687672,3.486018 -1.96723,0.579125 -4.113556,0.646846 -6.249634,0.127963 C 12.621084,28.772711 11.117299,27.50291 9.5198163,25.589432 8.4482262,24.305871 6.9390538,22.648096 6.4719101,21.034312 5.906623,19.081484 5.8423527,16.957147 6.3566334,14.840016 6.728108,13.310774 7.3616915,11.930206 8.219653,10.720108 9.2210104,9.3077599 10.34646,8.8210313 11.816042,7.9618796 c 1.12972,-0.6604608 2.531683,-1.8339968 3.82863,-2.1008615 0.845399,-0.1739519 1.690675,-0.067766 2.531778,0.1185656 z m -3.9577,-4.4699872 c -1.211555,0.024583 -2.370953,0.169028 -3.46875,0.6875 -1.6841612,0.7954024 -3.2063553,2.8471251 -4.53125,4.125 -1.7234724,1.6623073 -3.1002141,2.7057583 -4,4.9687495 -0.7709354,1.938929 -1.1875,4.03637 -1.1875,6.25 0,3.064618 0.7976662,5.955917 2.21875,8.4375 1.1743595,2.050738 3.7653305,3.820082 5.65625,5.21875 2.818903,2.085073 5.318334,3.3125 9.09375,3.3125 3.092046,0 6.003327,-0.80522 8.5,-2.25 2.61225,-1.511662 3.757912,-3.718839 5.25,-6.34375 1.404536,-2.470888 3.21875,-5.329647 3.21875,-8.375 0,-2.384501 -1.487325,-4.628617 -2.375,-6.6875 C 30.998456,7.2213408 29.056342,4.1543155 25.25,2.1970965 c -2.198055,-1.0398074 -4.656966,-0.625 -7.25,-0.625 -1.294618,0 -2.569695,-0.087083 -3.78125,-0.0625 z m 0.5,2.0625 c 1.06011,-0.02151 2.14846,0.0625 3.28125,0.0625 2.268905,0 4.420452,-0.3785815 6.34375,0.53125 3.33055,1.7125666 5.041618,4.3844947 6.4375,7.5624995 0.776716,1.801522 2.0625,3.788561 2.0625,5.875 0,2.664684 -1.583531,5.181723 -2.8125,7.34375 -1.305577,2.296798 -2.308031,4.208546 -4.59375,5.53125 -2.184589,1.264182 -4.73196,1.96875 -7.4375,1.96875 -3.303489,0 -5.47096,-1.081811 -7.9375,-2.90625 -1.6545547,-1.223834 -3.9411854,-2.768104 -4.96875,-4.5625 -1.2434483,-2.171385 -1.9375,-4.69346 -1.9375,-7.375 0,-1.936927 0.3566815,-3.772187 1.03125,-5.46875 0.7873127,-1.980118 1.9919617,-2.8892306 3.5,-4.3437495 1.1592829,-1.1181405 2.495109,-2.9290229 3.96875,-3.625 0.960573,-0.453663 2.00239,-0.5722399 3.0625,-0.59375 z"
     inkscape:connector-curvature="0" />
</svg>
