<?xml version="1.0" encoding="UTF-8" standalone="no"?>
<!-- Created with Inkscape (http://www.inkscape.org/) -->

<svg
   xmlns:dc="http://purl.org/dc/elements/1.1/"
   xmlns:cc="http://creativecommons.org/ns#"
   xmlns:rdf="http://www.w3.org/1999/02/22-rdf-syntax-ns#"
   xmlns:svg="http://www.w3.org/2000/svg"
   xmlns="http://www.w3.org/2000/svg"
   xmlns:sodipodi="http://sodipodi.sourceforge.net/DTD/sodipodi-0.dtd"
   xmlns:inkscape="http://www.inkscape.org/namespaces/inkscape"
   version="1.1"
   width="36"
   height="36"
   id="svg2"
   inkscape:version="0.48.3.1 r9886"
   sodipodi:docname="chew.svg">
  <sodipodi:namedview
     pagecolor="#ffffff"
     bordercolor="#666666"
     borderopacity="1"
     objecttolerance="10"
     gridtolerance="10"
     guidetolerance="10"
     inkscape:pageopacity="0"
     inkscape:pageshadow="2"
     inkscape:window-width="1366"
     inkscape:window-height="709"
     id="namedview6"
     showgrid="false"
     inkscape:zoom="9.2709556"
     inkscape:cx="-11.098635"
     inkscape:cy="22.198514"
     inkscape:window-x="0"
     inkscape:window-y="27"
     inkscape:window-maximized="1"
     inkscape:current-layer="svg2" />
  <defs
     id="defs4" />
  <metadata
     id="metadata7">
    <rdf:RDF>
      <cc:Work
         rdf:about="">
        <dc:format>image/svg+xml</dc:format>
        <dc:type
           rdf:resource="http://purl.org/dc/dcmitype/StillImage" />
        <dc:title />
      </cc:Work>
    </rdf:RDF>
  </metadata>
  <path
     id="path2994"
     style="fill:#000000"
     d="m 4.8614469,24.046478 c -0.804675,-0.258379 -1.371614,-0.809722 -1.59048,-1.546711 -0.23502,-0.791408 -0.0828,-1.474262 0.562633,-2.523842 0.418944,-0.681281 0.577705,-1.121462 0.498631,-1.382539 -0.03085,-0.101805 -0.261076,-0.459778 -0.511654,-0.795497 -0.93093,-1.247237 -1.160897,-2.061539 -0.839991,-2.974326 0.420995,-1.197462 1.431327,-1.948774 2.608471,-1.939739 1.038989,0.008 1.642055,0.527143 2.341512,2.015755 0.497277,1.058322 1.040285,1.692223 1.526718,1.78228 9.6740251,-0.06493 7.4285831,0.08383 16.9750901,-0.930652 1.177653,-0.122117 1.34627,-0.283428 1.538478,-1.47185 0.150752,-0.932063 0.413196,-1.445136 0.963215,-1.883067 0.727494,-0.579243 1.695768,-0.705046 2.538458,-0.329811 0.650015,0.289439 1.303079,1.207052 1.559382,2.191055 0.25666,0.985378 0.145915,1.39856 -0.619833,2.312571 -0.666397,0.795432 -0.846909,1.145737 -0.77519,1.50435 0.02746,0.137164 0.268028,0.580879 0.534655,0.986034 0.838816,1.27463 1.027578,1.905086 0.787125,2.629013 -0.18948,0.570475 -0.546485,0.960525 -1.151976,1.258609 -0.920579,0.453199 -1.975137,0.341397 -2.720274,-0.288395 -0.365266,-0.308725 -0.479633,-0.557217 -0.759538,-1.650233 -0.289656,-1.131121 -0.40577,-1.371456 -0.750302,-1.553024 -8.690024,-0.208439 -4.869261,-0.490168 -16.336216,0.336166 -1.6304811,0.127131 -1.8855401,0.209311 -2.3930221,0.771031 -0.375362,0.415483 -0.543085,0.751032 -0.869816,1.740181 -0.320404,0.969977 -0.596348,1.368477 -1.120615,1.618298 -0.501886,0.239155 -1.453276,0.29844 -1.995461,0.124343 z M 18,0 8,5 28,5 18,0 z" />
</svg>
