<?xml version="1.0" encoding="UTF-8" standalone="no"?>
<!-- Created with Inkscape (http://www.inkscape.org/) -->

<svg
   xmlns:dc="http://purl.org/dc/elements/1.1/"
   xmlns:cc="http://creativecommons.org/ns#"
   xmlns:rdf="http://www.w3.org/1999/02/22-rdf-syntax-ns#"
   xmlns:svg="http://www.w3.org/2000/svg"
   xmlns="http://www.w3.org/2000/svg"
   version="1.1"
   width="36"
   height="36"
   id="svg2">
  <defs
     id="defs4" />
  <metadata
     id="metadata7">
    <rdf:RDF>
      <cc:Work
         rdf:about="">
        <dc:format>image/svg+xml</dc:format>
        <dc:type
           rdf:resource="http://purl.org/dc/dcmitype/StillImage" />
        <dc:title></dc:title>
      </cc:Work>
    </rdf:RDF>
  </metadata>
  <path
     d="M 18,0 8,5 28,5 18,0 z M 6.59375,13 c -1.299767,10e-5 -2.3156902,0.42485 -3,1.28125 -0.6843138,0.8565 -1.0000009,2.09615 -1,3.71875 -9e-7,1.6182 0.3156862,2.86235 1,3.71875 C 4.2780598,22.57525 5.293983,23 6.59375,23 6.9595721,23 7.2935976,22.953 7.625,22.875 7.9563902,22.7976 8.2612237,22.68625 8.5625,22.53125 l 0,-2.125 c -0.3270994,0.3013 -0.627629,0.5455 -0.9375,0.6875 -0.3055792,0.1376 -0.6104127,0.1875 -0.9375,0.1875 -0.6972284,0 -1.2365341,-0.2616 -1.59375,-0.8125 C 4.740831,19.91355 4.5624971,19.0845 4.5625,18 c -2.9e-6,-1.0889 0.178331,-1.91785 0.53125,-2.46875 0.3572159,-0.5552 0.8965216,-0.8125 1.59375,-0.8125 0.3270873,0 0.6319208,0.07665 0.9375,0.21875 0.309871,0.1377 0.6104006,0.35495 0.9375,0.65625 l 0,-2.125 C 8.2698314,13.31375 7.9606941,13.203 7.625,13.125 7.2892939,13.0478 6.9595721,13.0001 6.59375,13 z m 3.84375,0.1875 0,9.625 1.90625,0 0,-4.28125 2.375,0 0,4.28125 1.90625,0 0,-9.625 -1.90625,0 0,3.65625 -2.375,0 0,-3.65625 -1.90625,0 z m 8.15625,0 0,9.625 6,0 0,-1.6875 -4.09375,0 0,-2.5 3.71875,0 0,-1.6875 -3.71875,0 0,-2.09375 4.09375,0 0,-1.65625 -6,0 z m 6.875,0 1.1875,9.625 1.75,0 1.03125,-5.0625 1.09375,5.0625 1.78125,0 1.09375,-9.625 -1.65625,0 -0.5625,7.0625 -0.96875,-4.5625 -1.5625,0 -0.84375,4.5625 -0.6875,-7.0625 -1.65625,0 z"
     id="path3001"
     style="fill:#000000;fill-opacity:1;stroke:none" />
</svg>
