<?xml version="1.0" encoding="UTF-8" standalone="no"?>
<!-- Created with Inkscape (http://www.inkscape.org/) -->

<svg
   xmlns:dc="http://purl.org/dc/elements/1.1/"
   xmlns:cc="http://creativecommons.org/ns#"
   xmlns:rdf="http://www.w3.org/1999/02/22-rdf-syntax-ns#"
   xmlns:svg="http://www.w3.org/2000/svg"
   xmlns="http://www.w3.org/2000/svg"
   version="1.1"
   width="36"
   height="36"
   id="svg2">
  <defs
     id="defs4" />
  <metadata
     id="metadata7">
    <rdf:RDF>
      <cc:Work
         rdf:about="">
        <dc:format>image/svg+xml</dc:format>
        <dc:type
           rdf:resource="http://purl.org/dc/dcmitype/StillImage" />
        <dc:title></dc:title>
      </cc:Work>
    </rdf:RDF>
  </metadata>
  <path
     d="M 18,0 8,5 28,5 18,0 z m -5,8 c 1.226076,0.9208657 2.124901,1.8171322 2.71875,2.6875 0.574733,0.870406 0.87502,1.742015 0.875,2.625 2e-5,1.173147 -0.54009,2.505502 -1.59375,3.96875 -0.191549,0.277527 -0.31044,0.486255 -0.40625,0.625 -0.593848,0.933471 -1.007999,1.713045 -1.21875,2.34375 -0.210705,0.630725 -0.312477,1.268949 -0.3125,1.9375 2.3e-5,1.046994 0.264032,2.04791 0.78125,2.96875 0.517264,0.920848 1.362689,1.859836 2.53125,2.84375 l 6.5625,0 c -1.206882,-0.933457 -2.069429,-1.835745 -2.625,-2.71875 -0.555539,-0.895611 -0.843733,-1.828577 -0.84375,-2.8125 1.7e-5,-0.643322 0.113882,-1.294162 0.34375,-1.9375 0.229902,-0.655936 0.661174,-1.466186 1.3125,-2.4375 0.07664,-0.138746 0.214694,-0.347473 0.40625,-0.625 C 22.508276,16.043346 23.000013,14.760304 23,13.625 23.000013,12.628486 22.736005,11.676885 22.21875,10.78125 21.682367,9.8730389 20.836941,8.9460946 19.6875,8 L 13,8 z"
     id="path3001"
     style="fill:#000000;fill-opacity:1;stroke:none" />
</svg>
