<?xml version="1.0" encoding="UTF-8" standalone="no"?>
<!-- Created with Inkscape (http://www.inkscape.org/) -->

<svg
   xmlns:dc="http://purl.org/dc/elements/1.1/"
   xmlns:cc="http://creativecommons.org/ns#"
   xmlns:rdf="http://www.w3.org/1999/02/22-rdf-syntax-ns#"
   xmlns:svg="http://www.w3.org/2000/svg"
   xmlns="http://www.w3.org/2000/svg"
   version="1.1"
   width="36"
   height="36"
   id="svg2">
  <defs
     id="defs4" />
  <metadata
     id="metadata7">
    <rdf:RDF>
      <cc:Work
         rdf:about="">
        <dc:format>image/svg+xml</dc:format>
        <dc:type
           rdf:resource="http://purl.org/dc/dcmitype/StillImage" />
        <dc:title></dc:title>
      </cc:Work>
    </rdf:RDF>
  </metadata>
  <path
     d="M 16.968574,8e-6 16.635857,2.2624842 15.937151,0.06655098 13.841033,0.43253884 13.907573,2.728288 12.842878,0.69871374 10.846575,1.430691 11.312379,3.6598956 9.9149704,1.8632233 8.0850259,2.9279184 8.9500906,5.0573071 7.2532331,3.5268082 5.622919,4.8909482 6.8539724,6.8207079 5.1238432,5.7892843 4.8909412,5.6229254 3.5268008,7.2199673 5.0905716,8.9500966 2.92791,8.085032 1.8964867,9.9149758 3.6931594,11.312387 1.4639544,10.846583 0.73197666,12.809615 0.99815044,12.94271 2.7948231,13.907589 0.46580288,13.841049 0.09981401,15.903895 2.2957473,16.6026 -1.085e-6,16.935317 l 0,2.096118 2.329020085,0.332717 -2.229205,0.731977 0.36598888,2.062846 2.29574862,-0.06654 -2.02957486,1.064695 0.73197766,1.996301 2.2292051,-0.465804 -1.7966727,1.397412 1.0314233,1.829944 2.1293898,-0.865064 -1.530499,1.696857 1.3641404,1.630313 1.9630312,-1.231052 -1.2310534,1.963031 1.6303141,1.36414 1.6968575,-1.530499 -0.8650647,2.129389 1.8299445,1.031423 0.1663586,-0.232902 1.231053,-1.56377 -0.465804,2.229205 1.996303,0.731977 1.064695,-2.029574 -0.06654,2.295747 2.096118,0.36599 0.698706,-2.195934 0.332718,2.295748 2.096118,0 0.332716,-2.295748 0.698706,2.195934 2.062847,-0.36599 -0.06654,-2.329019 1.097967,2.062846 1.963031,-0.731977 -0.465804,-2.229205 1.397412,1.796672 1.829945,-1.031423 -0.865065,-2.162661 1.730128,1.563771 1.597042,-1.36414 -0.166357,-0.232904 -1.031424,-1.730127 1.92976,1.231052 1.364141,-1.630313 -1.5305,-1.696857 2.12939,0.865064 1.064695,-1.829944 -1.796673,-1.397412 2.229206,0.465804 0.731977,-1.996301 -2.029575,-1.064695 2.295748,0.06654 0.36599,-2.062846 -2.229205,-0.731977 2.295748,-0.332717 0,-2.096118 -2.262477,-0.332717 2.195934,-0.698705 -0.36599,-2.062846 -2.329019,0.06654 2.062843,-1.097967 -0.731977,-1.963031 -2.229206,0.465804 1.796673,-1.3974117 -1.064695,-1.8299438 -2.12939,0.8650646 1.5305,-1.7301293 -1.364141,-1.5970419 -1.92976,1.1977825 1.197781,-1.9297597 -1.597042,-1.36414 L 27.049908,5.0573146 27.914973,2.9279259 26.085028,1.8632308 24.687616,3.6599031 25.15342,1.4306985 23.190389,0.69872124 22.092422,2.761567 22.158962,0.43254634 20.096115,0.06655848 19.397409,2.2624917 19.064691,1.5499997e-5 l -2.096117,0 z m 0.964879,7.1201448 0.166359,0 1.696858,0.133095 0.199631,0.03327 1.663585,0.4658038 1.696859,0.7652487 0.09981,0.06654 0.06654,0.03327 1.397414,0.9981521 1.36414,1.3308686 1.097966,1.530497 0.03327,0.06654 0.06654,0.09981 0.765249,1.696858 0.465804,1.663585 0.03327,0.19963 0.133095,1.696857 0,0.09981 0,0.06654 -0.166359,1.829944 0,0.06654 -0.465804,1.663584 -0.765249,1.730128 -0.09981,0.166359 -1.097966,1.530499 -1.36414,1.330869 -1.563771,1.064693 -1.530499,0.731979 -0.06654,0 -1.763402,0.499075 -0.19963,0.03327 -1.696859,0.166359 -0.166359,0 -1.730128,-0.166359 -0.166359,-0.03327 -1.796672,-0.499075 -0.03327,0 -1.563772,-0.731965 -1.563771,-1.064694 -0.03327,-0.03327 -0.09981,-0.06654 -1.1977814,-1.231052 -1.1977817,-1.696858 -0.7319778,-1.563769 0,-0.03327 -0.4990756,-1.796672 0,-0.06654 -0.033271,-0.09981 -0.1663586,-1.73013 0,-0.06654 0,-0.09981 0.1663586,-1.696858 0.033271,-0.199629 0.4990756,-1.7634 0,-0.06654 0.7319778,-1.530517 1.1977817,-1.696857 1.1977814,-1.2310536 0.09981,-0.06654 0.03327,-0.03327 1.397413,-0.9981506 0.06654,-0.03327 0.09981,-0.06654 1.730129,-0.7652487 1.663585,-0.4658038 0.06654,0 1.829944,-0.166359 z"
     id="path2990"
     style="font-size:medium;font-style:normal;font-variant:normal;font-weight:normal;font-stretch:normal;text-indent:0;text-align:start;text-decoration:none;line-height:normal;letter-spacing:normal;word-spacing:normal;text-transform:none;direction:ltr;block-progression:tb;writing-mode:lr-tb;text-anchor:start;baseline-shift:baseline;color:#000000;fill:#000000;fill-opacity:1;fill-rule:nonzero;stroke:none;stroke-width:2;marker:none;visibility:visible;display:inline;overflow:visible;enable-background:accumulate;font-family:Sans;-inkscape-font-specification:Sans" />
</svg>
