<?xml version="1.0" encoding="UTF-8" standalone="no"?>
<!-- Created with Inkscape (http://www.inkscape.org/) -->

<svg
   xmlns:dc="http://purl.org/dc/elements/1.1/"
   xmlns:cc="http://creativecommons.org/ns#"
   xmlns:rdf="http://www.w3.org/1999/02/22-rdf-syntax-ns#"
   xmlns:svg="http://www.w3.org/2000/svg"
   xmlns="http://www.w3.org/2000/svg"
   xmlns:sodipodi="http://sodipodi.sourceforge.net/DTD/sodipodi-0.dtd"
   xmlns:inkscape="http://www.inkscape.org/namespaces/inkscape"
   version="1.1"
   width="36"
   height="36"
   id="svg2"
   inkscape:version="0.48.3.1 r9886"
   sodipodi:docname="sniff.svg">
  <sodipodi:namedview
     pagecolor="#ffffff"
     bordercolor="#666666"
     borderopacity="1"
     objecttolerance="10"
     gridtolerance="10"
     guidetolerance="10"
     inkscape:pageopacity="0"
     inkscape:pageshadow="2"
     inkscape:window-width="1366"
     inkscape:window-height="709"
     id="namedview6"
     showgrid="false"
     inkscape:zoom="3.2777778"
     inkscape:cx="3.1671473"
     inkscape:cy="12.945829"
     inkscape:window-x="0"
     inkscape:window-y="27"
     inkscape:window-maximized="1"
     inkscape:current-layer="svg2" />
  <defs
     id="defs4" />
  <metadata
     id="metadata7">
    <rdf:RDF>
      <cc:Work
         rdf:about="">
        <dc:format>image/svg+xml</dc:format>
        <dc:type
           rdf:resource="http://purl.org/dc/dcmitype/StillImage" />
        <dc:title></dc:title>
      </cc:Work>
    </rdf:RDF>
  </metadata>
  <path
     style="font-size:12.45045567px;font-style:normal;font-variant:normal;font-weight:500;font-stretch:normal;line-height:125%;letter-spacing:0px;word-spacing:0px;fill:#000000;fill-opacity:1;stroke:none;font-family:Ubuntu;-inkscape-font-specification:Ubuntu Medium"
     d="M 18 0 L 8 5 L 28 5 L 18 0 z M 5.75 13.1875 C 4.8793646 13.187509 4.1927763 13.427668 3.6875 13.90625 C 3.1822212 14.375987 2.9374994 15.041904 2.9375 15.875 C 2.9374994 16.273832 2.9771468 16.591396 3.09375 16.875 C 3.2181253 17.158615 3.3681614 17.421161 3.5625 17.625 C 3.7646098 17.828849 3.9934727 17.9832 4.25 18.125 C 4.5142972 18.257946 4.8139013 18.384788 5.09375 18.5 C 5.3735934 18.606357 5.5948386 18.728538 5.8125 18.84375 C 6.0301547 18.950107 6.2272995 19.054562 6.375 19.1875 C 6.530466 19.311583 6.6410108 19.465472 6.71875 19.625 C 6.8042549 19.784533 6.8437456 19.965932 6.84375 20.1875 C 6.8437456 20.55974 6.7409744 20.858658 6.5 21.0625 C 6.2590174 21.266348 5.8723451 21.375002 5.34375 21.375 C 4.8384696 21.375002 4.3888294 21.289192 4.03125 21.15625 C 3.6736674 21.02331 3.3973837 20.882943 3.1875 20.75 L 2.75 22.125 C 2.8432817 22.18704 2.9695292 22.263986 3.125 22.34375 C 3.2804692 22.414653 3.4776142 22.491598 3.6875 22.5625 C 3.9051567 22.633403 4.1341754 22.674431 4.40625 22.71875 C 4.686094 22.77192 5.0094866 22.8125 5.34375 22.8125 C 6.3387551 22.8125 7.0806938 22.577003 7.59375 22.125 C 8.1145694 21.664136 8.3749941 21.020604 8.375 20.1875 C 8.3749941 19.753226 8.3275732 19.395088 8.21875 19.09375 C 8.1099152 18.783556 7.9598792 18.502825 7.75 18.28125 C 7.5478836 18.050823 7.2719118 17.878285 6.96875 17.71875 C 6.6733523 17.550362 6.349648 17.378286 5.96875 17.21875 C 5.7510884 17.130127 5.5615611 17.035 5.375 16.9375 C 5.1962066 16.840014 5.0149206 16.740221 4.875 16.625 C 4.7428481 16.50979 4.640233 16.36056 4.5625 16.21875 C 4.4925366 16.068089 4.4687479 15.891352 4.46875 15.6875 C 4.4687479 15.350722 4.5635896 15.092377 4.78125 14.90625 C 5.0066791 14.720143 5.3222982 14.625007 5.71875 14.625 C 6.0530072 14.625007 6.3765557 14.692631 6.6875 14.78125 C 7.0062092 14.869887 7.2981959 14.987864 7.5625 15.15625 L 8.03125 13.8125 C 7.805813 13.661841 7.4901938 13.499088 7.09375 13.375 C 6.7050703 13.242067 6.2552741 13.187509 5.75 13.1875 z M 9.65625 13.40625 L 9.65625 22.625 L 11.09375 22.625 L 11.09375 16.03125 C 11.420235 16.474396 11.767416 16.972899 12.125 17.53125 C 12.490351 18.080748 12.868938 18.656196 13.21875 19.25 C 13.568554 19.834947 13.892257 20.415058 14.21875 21 C 14.545231 21.576083 14.829444 22.119821 15.09375 22.625 L 16.34375 22.625 L 16.34375 13.40625 L 14.90625 13.40625 L 14.90625 19.5 C 14.641945 19.021412 14.342029 18.518249 14 17.96875 C 13.665734 17.4104 13.30285 16.862 12.9375 16.3125 C 12.579914 15.763013 12.232578 15.223937 11.875 14.71875 C 11.517416 14.204716 11.185938 13.778496 10.875 13.40625 L 9.65625 13.40625 z M 18.28125 13.40625 L 18.28125 22.625 L 19.75 22.625 L 19.75 13.40625 L 18.28125 13.40625 z M 21.71875 13.40625 L 21.71875 22.625 L 23.1875 22.625 L 23.1875 18.59375 L 26.40625 18.59375 L 26.40625 17.1875 L 23.1875 17.1875 L 23.1875 14.8125 L 26.8125 14.8125 L 26.8125 13.40625 L 21.71875 13.40625 z M 28.125 13.40625 L 28.125 22.625 L 29.59375 22.625 L 29.59375 18.59375 L 32.84375 18.59375 L 32.84375 17.1875 L 29.59375 17.1875 L 29.59375 14.8125 L 33.25 14.8125 L 33.25 13.40625 L 28.125 13.40625 z "
     id="path3038" />
</svg>
