<?xml version="1.0" encoding="UTF-8" standalone="no"?>
<!-- Created with Inkscape (http://www.inkscape.org/) -->

<svg
   xmlns:dc="http://purl.org/dc/elements/1.1/"
   xmlns:cc="http://creativecommons.org/ns#"
   xmlns:rdf="http://www.w3.org/1999/02/22-rdf-syntax-ns#"
   xmlns:svg="http://www.w3.org/2000/svg"
   xmlns="http://www.w3.org/2000/svg"
   version="1.1"
   width="36"
   height="36"
   id="svg2">
  <defs
     id="defs4" />
  <metadata
     id="metadata7">
    <rdf:RDF>
      <cc:Work
         rdf:about="">
        <dc:format>image/svg+xml</dc:format>
        <dc:type
           rdf:resource="http://purl.org/dc/dcmitype/StillImage" />
        <dc:title></dc:title>
      </cc:Work>
    </rdf:RDF>
  </metadata>
  <path
     d="M 18,0 8,5 28,5 18,0 z m 0,10.5 c -6.627417,0 -12,5.3726 -12,12 0,1.0421 0.1565862,2.036 0.40625,3 l 4.71875,0 C 10.720892,24.5787 10.5,23.5705 10.5,22.5 10.5,18.3579 13.857864,15 18,15 c 4.142136,0 7.5,3.3579 7.5,7.5 0,1.0705 -0.220892,2.0787 -0.625,3 l 4.71875,0 C 29.843414,24.536 30,23.5421 30,22.5 c 0,-6.6274 -5.372583,-12 -12,-12 z"
     id="path3022"
     style="fill:#000000;fill-opacity:1;stroke:none" />
</svg>
