<?xml version="1.0" encoding="UTF-8" standalone="no"?>
<!-- Created with Inkscape (http://www.inkscape.org/) -->

<svg
   xmlns:dc="http://purl.org/dc/elements/1.1/"
   xmlns:cc="http://creativecommons.org/ns#"
   xmlns:rdf="http://www.w3.org/1999/02/22-rdf-syntax-ns#"
   xmlns:svg="http://www.w3.org/2000/svg"
   xmlns="http://www.w3.org/2000/svg"
   version="1.1"
   width="36"
   height="36"
   id="svg2">
  <defs
     id="defs4" />
  <metadata
     id="metadata7">
    <rdf:RDF>
      <cc:Work
         rdf:about="">
        <dc:format>image/svg+xml</dc:format>
        <dc:type
           rdf:resource="http://purl.org/dc/dcmitype/StillImage" />
        <dc:title></dc:title>
      </cc:Work>
    </rdf:RDF>
  </metadata>
  <path
     d="M 18,0 8,5 28,5 18,0 z M 6.40625,10.5 C 6.1565862,11.464 6,12.4579 6,13.5 c 0,6.6274 5.372583,12 12,12 6.627417,0 12,-5.3726 12,-12 0,-1.0421 -0.156586,-2.036 -0.40625,-3 l -4.71875,0 c 0.404108,0.9213 0.625,1.9295 0.625,3 0,4.1421 -3.357864,7.5 -7.5,7.5 -4.142136,0 -7.5,-3.3579 -7.5,-7.5 0,-1.0705 0.220892,-2.0787 0.625,-3 l -4.71875,0 z"
     id="path3022"
     style="fill:#000000;fill-opacity:1;stroke:none" />
</svg>
